#N canvas 80 118 587 620 12;
#X obj 1 1 cnv 15 240 30 empty empty mqtt_client 20 12 0 18 -233017
-66577 0;
#X obj 52 277 mqtt_client;
#X obj 83 329 print;
#X obj 55 387 route topic-1;
#X msg 167 174 subscribe topic-1;
#X msg 318 173 unsubscribe topic-1;
#X msg 43 130 publish topic-1 v1;
#X floatatom 22 431 5 0 0 0 - - -;
#X msg 295 133 publish topic-1 \$1;
#X floatatom 295 90 5 0 0 0 - - -;
#X obj 183 389 route connected publish_result subscribe;
#X msg 22 90 connect localhost test-client;
#X msg 76 432 set \$1;
#X msg 76 468 abc;
#X obj 183 434 tgl 15 0 empty empty empty 17 7 0 10 -262144 -1 -1 0
1;
#X obj 273 434 tgl 15 0 empty empty empty 17 7 0 10 -262144 -1 -1 0
1;
#X obj 366 432 tgl 15 0 empty empty empty 17 7 0 10 -262144 -1 -1 0
1;
#X msg 292 220 publish topic-1 abc;
#X text 24 533 Written by Alex Nadzharov \, 2021 Version 0.0.1 GPL3
;
#X text 19 40 client for MQTT protocol based on Eclipse PAHO C++ library
;
#X connect 1 0 3 0;
#X connect 1 1 2 0;
#X connect 1 1 10 0;
#X connect 3 0 7 0;
#X connect 3 0 12 0;
#X connect 4 0 1 0;
#X connect 5 0 1 0;
#X connect 6 0 1 0;
#X connect 8 0 1 0;
#X connect 9 0 8 0;
#X connect 10 0 14 0;
#X connect 10 1 15 0;
#X connect 10 2 16 0;
#X connect 11 0 1 0;
#X connect 12 0 13 0;
#X connect 17 0 1 0;
